<svg width="1000" height="521" viewBox="0 0 1000 521" fill="none" xmlns="http://www.w3.org/2000/svg">
<g clip-path="url(#clip0_580_2)">
<path d="M63.7459 520.023L35.6709 519.98V481.935L63.3509 481.988V488.959L45.1829 488.916V496.912H62.5189V503.916L45.1829 503.873V513.031L63.7459 513.052V520.023V520.023ZM143.701 520.087H135.737L114.685 495.673V520.044H105.218V481.987L113.896 482.008L134.232 505.311V482.051L143.701 482.072V520.087ZM220.762 489.087L206.992 489.066V520.107H197.523V489.044L183.752 489.023V482.074L220.762 482.095V489.087ZM288.856 520.226L260.793 520.171V482.116L288.439 482.18V489.129L270.27 489.108V497.092H287.617V504.084L270.27 504.063V513.2L288.856 513.221V520.226V520.226ZM347.247 482.201C355.082 482.201 359.716 487.474 359.716 493.154C359.716 497.349 357.549 500.455 353.203 502.472C357.111 504.415 358.273 509.113 363.622 520.288L353.203 520.245C349.115 512.112 347.621 504.79 342.465 504.79L339.754 504.769V520.246L330.264 520.226V482.181L347.247 482.201ZM339.754 497.787L344.76 497.83C347.387 497.83 349.959 496.721 349.959 493.484C349.959 490.644 348.102 489.173 344.547 489.173H339.754V497.787ZM433.83 489.214L420.071 489.194V520.245H410.592V489.173L396.811 489.152V482.201L433.831 482.265V489.214H433.83ZM507.262 520.353L497.026 520.31L493.93 512.806L476.914 512.763L474.053 520.31L463.998 520.289L479.337 482.266L490.342 482.287L507.262 520.353ZM484.984 491.361L479.412 506.123L491.123 506.144L484.984 491.361ZM555.662 520.375L546.15 520.354V482.309H555.662V520.375ZM637.1 520.46L629.116 520.439L608.087 495.994V520.418L598.618 520.397V482.33L607.296 482.383L627.61 505.645V482.405H637.1V520.46V520.46ZM712.474 482.468H720.769V520.525L711.279 520.504V496.742L700.978 508.654H699.538L689.279 496.72V520.46H679.8V482.403L688.062 482.424L700.285 496.569L712.474 482.468ZM791.511 520.566L763.436 520.525V482.468L791.116 482.532V489.503L772.927 489.482V497.414L790.263 497.467V504.438L772.927 504.417V513.554L791.512 513.597V520.566H791.511ZM871.455 520.664L863.479 520.643L842.451 496.219V520.621L832.961 520.566V482.533L841.661 482.554L861.974 505.857V482.576L871.454 482.597V520.664H871.455ZM948.526 489.63L934.744 489.61V520.682H925.265V489.588L911.463 489.567V482.596L948.526 482.659V489.63V489.63Z" fill="#050066"/>
<path d="M611.096 359.634C611.033 365.9 614.309 367.192 614.683 371.152V404.488L614.075 404.863C612.196 406.197 611.364 406.869 611.139 407.093C611.16 407.243 611.225 407.638 611.225 408.183C611.225 408.621 611.161 409.101 611.096 409.74L610.905 410.916H557.467L557.061 410.223C556.334 408.973 555.684 408.119 554.873 407.008L537.227 405.119C533.821 408.908 528.282 412.453 523.712 414.021L523.498 414.085H523.274C509.835 414.085 502.33 414.726 494.591 414.726C491.015 415.4 481.343 421.259 473.913 421.345H473.325L472.93 420.907C470.069 417.821 469.323 414.501 469.344 411.725C469.344 409.1 469.888 406.868 469.888 405.715V391.55L470.475 391.155C472.012 390.089 472.824 389.736 473.743 388.551C474.436 387.676 474.766 386.106 474.766 384.442C474.766 381.057 473.517 377.364 473.517 377.364L473.186 376.371L474.02 375.784C477.276 373.468 479.186 372.614 480.691 369.593C481.236 368.419 481.503 366.733 481.503 365.025C481.503 361.556 480.607 358.076 480.607 358.076L480.339 357.115L481.13 356.592C482.677 355.545 483.467 355.151 484.364 354.01C484.993 353.197 485.303 351.811 485.303 350.251C485.303 347.123 484.16 343.76 484.16 343.76L484.096 343.515V343.3C484.321 341.327 486.723 337.75 487.704 334.292C488.579 331.249 488.932 327.405 488.932 323.649C488.932 316.102 487.64 309.024 487.64 308.736C487.704 305.298 485.676 304.561 484.161 300.579C481.503 293.034 480.67 283.852 480.67 274.96C480.67 257.144 484.097 240.396 484.161 240.129L505.415 183.68C505.265 182.901 503.269 182.346 501.945 179.646C501.678 178.941 501.529 178.257 501.529 177.671C501.571 176.379 501.849 175.664 501.849 174.373V173.808L502.265 173.412C502.222 173.37 507.25 168.32 507.186 162.876C507.186 160.943 507.143 159.855 507.143 158.767C507.143 158.211 507.143 157.667 507.186 156.931C507.997 152.767 516.741 142.104 517.829 132.005C517.989 130.714 518.032 129.112 518.032 127.586C518.032 124.523 517.829 121.683 517.829 121.598C518.097 118.182 532.433 85.197 542.69 74.95V62.331L543.278 61.935C544.003 61.519 546.426 59.513 546.235 58.434V58.349C546.214 57.325 546.128 57.954 544.313 55.798H525.504L525.13 55.093C524.19 53.491 523.806 52.691 522.686 51.549C521.309 50.173 519.387 49.65 517.092 49.65C512.438 49.629 507.378 51.838 504.997 51.945C504.325 51.709 501.635 54.004 499.383 59.267C497.024 64.476 494.707 72.281 493.02 82.464C489.68 103.738 486.157 106.62 481.61 106.706C480.863 106.706 480.254 106.621 479.688 106.664C478.151 106.728 477.083 106.728 475.098 109.813L474.223 111.233L472.994 110.144C471.426 108.725 469.387 106.825 468.735 106.43L467.838 105.811L468.201 104.785C469.556 101.295 469.951 98.818 469.951 96.918C470.015 93.183 468.201 91.186 468.115 87.033C468.275 83.714 471.35 80.778 473.453 78.771V12.81L474.724 12.725C475.877 12.64 478.653 12.64 485.569 12.64C499.362 12.64 529.507 12.725 594.612 12.725H595.403L595.819 13.397C597.975 16.963 598.092 16.729 598.221 16.665C598.455 16.665 599.181 16.547 600.205 16.547C600.43 16.547 600.728 16.547 601.018 16.579L602.223 16.749V21.296L601.893 21.692C598.744 25.246 597.538 37.778 587.204 48.186C587.375 49.393 587.664 52.029 587.664 54.858C587.664 56.757 587.547 58.743 587.087 60.515C585.326 67.336 583.49 68.499 576.552 75.054C576.754 76.271 577.107 78.897 577.107 81.715C577.107 83.669 576.947 85.654 576.423 87.427C573.957 93.543 569.602 90.789 569.366 97.813C569.366 97.813 567.392 111.327 565.598 119.909C563.784 128.417 559.396 133.36 559.459 139.871C559.459 140.832 559.566 141.814 559.758 143.169L558.692 177.98L558.147 178.375C552.97 181.461 553.909 201.411 544.547 211.424V223.561L544.461 223.774C541.601 231.321 536.135 230.884 533.904 240.608V280.201L523.251 310.838C523.348 311.99 523.667 316.346 523.667 321.065C523.667 323.797 523.561 326.637 523.209 329.114C521.768 338.839 515.341 350.687 512.107 356.195C511.294 357.487 510.9 358.192 510.526 358.757C510.569 359.036 510.601 359.345 510.601 359.634C510.526 363.54 507.751 370.148 507.228 371.46C506.994 373.99 505.06 377.514 504.015 379.499C505.37 380.833 505.765 381.335 506.769 381.292C506.951 381.399 507.911 380.396 509.128 378.144L509.769 377.035L510.9 377.599C513.109 378.645 515.052 378.976 517.048 378.976C520.997 379.019 525.183 377.493 530.444 377.493C531.865 377.226 532.067 376.265 532.483 373.512C532.825 370.982 533.198 367.438 535.953 364.481C541.29 358.844 553.118 357.639 555.681 355.61C570.081 345.619 576.048 350.273 585.474 334.922L586.349 333.481L587.578 334.624C588.795 335.755 589.755 336.78 590.834 338.114H608.692L609.108 338.777C610.923 341.905 614.574 344.114 614.68 349.099C613.957 352.77 611.203 351.542 611.096 359.634ZM701.361 287.856C701.34 307.337 700.977 326.382 699.814 331.143L699.707 331.644L699.269 331.955C697.39 333.043 694.744 341.156 692.16 349.685C689.492 358.011 686.609 366.935 682.062 371.718V391.988L681.517 392.406C677.429 394.914 676.767 410.478 671.439 416.775V429.435L670.841 429.873C669.647 430.686 668.9 431.295 667.896 432.211V448.631L667.33 449.069C664.31 451.053 664.641 452.965 661.182 453.135C660.264 453.199 659.657 452.504 659.368 452.11C659.038 452.217 658.386 452.43 657.425 452.987L655.407 454.096L655.461 432.02L644.743 397.06V386.524C645.394 378.604 627.28 372.465 627.013 355.802V355.258L627.366 354.863C627.345 354.756 649.057 331.624 650.06 300.122V300.059C650.647 297.955 640.922 290.985 630.579 285.52C620.738 279.947 610.66 275.026 607.383 271.749H600.979L604.021 280.706V299.952C608.76 301.212 611.76 307.03 614.749 307.36C615.496 307.381 616.649 308.3 616.586 309.368C616.064 312.516 611.782 315.227 611.056 319.583L610.886 320.757L609.657 320.672C609.636 320.672 598.748 319.978 589.898 319.978C585.458 319.978 581.433 320.171 579.97 320.629C563.094 326.267 543.879 333.482 543.858 333.482L542.801 333.899L542.193 332.938C537.602 325.199 541.488 327.344 537.208 321.217L536.663 320.405L537.229 319.647C543.719 310.905 545.256 309.368 549.826 305.256C549.911 303.09 550.348 295.51 553.081 290.836C556.731 285.369 564.769 283.79 564.013 281.89C564.161 281.494 563.138 280.536 561.034 279.178L560.341 278.699L560.447 277.887C560.447 277.887 561.738 266.604 562.913 260.423C563.329 258.757 563.415 257.733 563.852 256.772C563.35 255.268 562.176 251.126 562.133 246.994C562.176 244.421 562.592 241.753 564.311 239.715C565.497 238.359 566.616 237.772 567.556 237.077V221.662L568.143 221.267C570.672 219.292 570.94 219.228 571.089 216.634C570.918 215.407 571.152 216.015 570 215.343C568.814 214.948 567.161 213.336 567.311 210.443C567.311 209.675 567.375 208.809 567.578 207.689C568.016 205.586 568.165 203.888 568.165 202.448C568.186 199.01 567.247 196.759 567.226 193.566C567.226 192.147 567.418 190.642 567.995 188.891C569.713 183.426 572.426 181.152 574.762 176.69C574.741 176.648 578.787 168.16 578.787 156.728V155.949L579.471 155.553C587.508 151.423 582.727 133.425 588.961 119.11C592.098 112.31 594.372 105.863 598.686 101.721C598.749 101.294 598.792 100.867 598.792 100.483C598.834 97.963 597.543 95.796 597.479 93.043C597.436 91.751 597.875 90.332 598.899 89.093C600.105 87.535 601.376 86.99 602.337 86.264C602.968 83.947 606.276 73.016 610.012 66.238C612.243 62.31 612.243 60.101 616.961 55.756V40.276L617.526 39.859C619.799 38.151 619.694 37.841 620.216 36.796C620.74 35.632 621.754 34.213 624.987 32.142L625.244 31.982L625.553 31.94C628.852 31.544 629.269 28.641 629.311 23.879C629.311 22.588 629.29 21.232 629.29 19.877C629.311 14.978 630.102 8.904 636.966 8.872C648.88 9.448 647.459 28.833 648.859 30.787C658.347 51.549 660.953 48.229 661.39 53.45V64.018C661.293 72.996 674.244 106.451 674.349 106.621L685.526 150.59C686.636 151.551 687.554 152.384 688.6 153.12L689.22 153.495V168.995C692.101 171.749 693.021 173.937 693.021 175.837C693.021 177.364 692.539 178.378 692.582 179.029C692.603 179.755 692.806 180.715 695.731 182.882L696.296 183.277V204.146L695.272 204.35C695.251 204.627 695.251 205.001 695.251 205.417C695.166 213.071 698.945 240.462 699.97 243.526L700.237 243.697L700.323 244.337C700.978 250.036 701.361 268.972 701.361 287.856ZM612.451 234.729C612.451 237.248 612.345 239.372 611.928 240.941L611.801 241.442C613.765 241.25 615.975 241.09 618.248 241.09C621.525 241.09 625.09 241.378 628.635 242.168C638.989 244.42 644.7 251.562 651.522 253.644C652.311 253.687 653.069 253.687 653.774 253.687H654.544C654.671 248.809 655.066 230.843 655.066 216.56C655.066 208.65 654.927 201.766 654.565 199.14C652.311 196.545 652.483 191.625 651.81 186.244C651.297 180.587 650.251 174.705 647.871 172.666C643.698 168.62 638.188 170.787 633.183 165.717C630.472 162.739 628.263 157.892 626.736 153.783L626.181 169.806L626.16 170.478L625.594 170.852C623.129 172.603 622.552 175.336 621.634 178.26C620.898 180.822 619.276 183.747 615.453 184.409C615.293 188.689 614.93 203.057 611.909 207.563C611.685 208.854 611.599 210.669 611.599 212.74C611.598 219.228 612.451 228.302 612.451 234.729ZM465.566 298.435L464.072 298.851C458.607 300.1 461.126 304.519 456.535 309.367C455.895 310.369 455.414 317.222 455.49 325.048C455.49 340.9 456.664 362.346 456.707 362.367L456.77 363.807H455.329C453.91 363.636 444.025 367.544 442.285 370.842L441.868 371.482H401.314L400.919 370.842C398.646 367.149 398.581 367.255 398.356 367.372C397.877 367.309 396.499 367.649 394.076 367.649C389.7 367.735 388.61 369.167 387.233 370.905C386.048 372.635 384.565 375.303 380.626 375.303H380.498C380.413 375.239 372.535 373.819 368.606 369.592H340.948L340.552 368.941C338.673 365.685 336.945 365.92 336.817 362.43C337.212 360.657 338.065 360.433 339.24 358.95C340.2 357.946 341.3 356.858 342.134 356.11V333L342.698 332.605C346.018 330.161 345.783 330.375 345.783 329.744C345.783 329.243 345.687 328.346 345.666 327.012C345.624 326.991 345.666 326.927 345.517 326.574C345.411 326.222 345.229 325.741 344.973 325.154C344.514 324.012 343.874 322.55 343.136 321.066C341.76 318.14 339.763 314.992 339.156 314.661L338.023 313.85L338.825 312.76C340.532 310.422 341.055 308.32 341.055 306.462C341.076 302.726 338.9 300.036 338.9 300.036L338.631 299.725L338.589 299.373C338.3 297.559 338.173 295.637 338.173 293.673C338.194 282.41 342.154 269.228 342.134 262.491V261.776L342.113 261.05L342.699 260.612C346.264 258.605 345.058 246.969 349.372 238.056C353.299 230.402 361.957 220.56 361.807 220.806C362.983 218.681 361.477 207.559 376.848 191.002C377.661 187.074 384.065 155.391 390.267 145.816C390.971 144.94 392.765 143.809 395.124 141.994C396.692 140.788 398.252 139.656 399.02 139.08C399.362 137.052 401.422 131.298 413.229 120.367C412.727 118.446 411.499 113.461 411.477 107.91C411.477 104.344 411.979 100.587 413.528 97.192L413.688 96.85L413.965 96.669C421.618 91.204 426.209 78.725 438.261 67.442V43.457L399.212 43.073C393.373 48.581 377.938 49.168 377.83 69.546V70.902H376.432C375.227 70.86 371.661 71.99 368.778 73.806C365.79 75.621 363.538 78.119 363.623 80.083V108.894C363.463 111.691 361.349 114.69 356.321 123.039L355.446 124.458L354.241 123.327C351.667 121.011 350.835 118.822 350.878 117.05C350.899 115.695 351.187 114.691 351.155 113.966C351.134 113.027 350.963 112.044 348.166 109.984L347.665 109.664L347.579 109.066C347.579 109.066 346.543 101.657 345.668 97.046C345.284 94.335 345.081 91.73 344.622 91.751L343.726 91.164L344.1 90.161C344.1 90.14 347.398 81.375 347.398 73.476C347.398 69.526 346.544 65.918 344.431 63.772C343.224 62.566 342.477 62.021 341.077 61.061L340.47 60.645V26.826L340.758 26.473C340.737 26.452 344.163 21.82 344.057 18.584L344.036 17.88L343.833 16.332H345.391C395.541 16.332 400.154 16.749 449.384 16.749H450.741V36.358C450.43 39.401 453.974 39.86 454.284 44.973V109.896L453.804 110.313C450.485 113.142 449.427 117.967 449.449 122.471C449.428 127.541 450.678 131.94 450.678 131.94L450.987 132.879L450.175 133.424C439.811 140.639 434.516 169.43 428.293 176.817V193.523L427.459 193.897C427.438 193.918 413.092 200.078 410.455 207.519C409.793 209.216 409.536 211.564 409.536 213.902C409.536 218.513 410.519 223.04 410.519 223.04L410.753 224.15L409.706 224.588C397.964 228.985 379.101 281.74 379.476 284.772V294.37L378.003 294.509L378.771 295.224L378.664 295.384C378.516 295.619 378.269 296.077 378.004 296.708C377.459 297.913 376.743 299.728 375.91 301.917C374.246 306.315 372.121 312.261 369.923 318.376C365.717 329.874 361.371 341.776 358.489 346.206C360.432 349.003 360.582 348.982 360.71 348.876C361.063 348.897 362.162 348.661 363.901 348.661C367.05 348.767 368.363 346.89 381.984 340.132C384.921 339.13 388.411 341.136 398.839 336.312C400.484 335.841 404.699 327.931 409.814 320.523C414.82 313.393 421.364 306.199 430.15 305.525C430.694 301.789 432.947 294.114 436.639 290.506L437.91 289.299L438.764 290.794C439.415 291.968 439.959 292.735 440.643 293.655C451.926 288.424 446.92 282.894 452.801 275.742L453.186 275.263H463.231L463.156 276.681C463.156 276.681 463.114 278.091 463.114 280.183C463.071 284.88 463.425 293.431 464.971 297.017L465.566 298.435ZM162.573 322.293C162.552 326.595 165.05 335.189 165.05 343.364C165.05 345.264 164.944 347.143 164.591 348.98C163.213 356.259 158.623 366.56 158.485 366.817C158.485 366.838 151.141 377.407 148.258 384.729C144.757 393.536 143.316 409.036 143.316 409.036L143.253 409.849L142.526 410.201C142.505 410.222 127.774 417 119.639 423.031C112.359 428.369 104.993 433.045 103.243 437.967L102.965 438.766L102.175 438.885C102.175 438.885 84.7219 441.35 79.5869 443.358C78.8939 443.602 78.6059 443.753 78.6269 443.805C77.6239 445.065 76.5229 445.877 75.2009 445.918C71.1329 445.15 70.1729 440.453 67.4389 440.785C66.3829 440.764 64.6539 441.414 62.1869 443.805C60.4369 447.498 55.0999 447.606 49.2489 447.776C40.5169 447.776 30.0239 446.165 27.6859 445.749C26.4689 446.356 25.0599 446.399 23.4479 446.421C19.5949 446.421 14.6209 445.589 11.8669 445.62C11.2039 445.589 10.6809 445.663 10.4779 445.727L9.74189 447.008L8.49189 445.856C6.92389 444.456 4.88389 442.555 4.23289 442.182L1.95989 440.678L4.48989 439.76C4.48989 439.727 12.7309 436.526 15.2499 434.112L15.2079 434.091L15.2499 434.05C15.3139 433.943 15.3989 433.718 15.5379 433.462C15.7729 432.876 16.0819 432.021 16.4339 430.964C17.0859 428.851 17.8969 425.958 18.7289 422.659C20.4269 416.126 22.1989 408.12 23.3619 402.11C23.3619 381.315 24.6009 370.651 24.6009 359.742C24.6009 354.319 24.3019 348.789 23.3839 341.819C23.0529 339.256 21.9429 320.085 20.2559 306.198C20.2559 283.748 21.5479 260.712 21.5479 247.09C21.5479 244.507 21.4839 242.233 21.3659 240.419L21.3239 239.106L22.6159 238.999C25.4339 238.775 26.6179 236.544 26.9079 235.85L26.0959 218.077L23.3639 212.345L23.7379 186.372C24.2189 182.594 27.1439 178.697 27.1009 178.75C27.4099 178.334 27.7089 175.836 27.6659 173.327C27.6659 169.89 27.3669 166.176 27.2489 165.108L23.3629 158.704V68.34L23.9279 67.924C27.3129 65.48 27.2479 65.48 27.1849 65.021C27.2059 64.422 26.9289 62.96 26.9289 60.409C26.9289 57.826 27.0779 56.576 27.0779 56.203L26.9929 56.224C26.6399 55.904 25.9889 55.306 25.0179 54.131C24.2819 54.195 23.1389 54.259 21.9869 54.323C21.8049 54.676 21.4629 55.114 20.7369 55.177C19.7769 54.964 19.5739 54.761 19.1899 54.408H19.0729C18.6559 54.408 18.4419 54.441 17.9619 54.323C17.8979 54.216 17.1719 54.387 16.8949 52.968C17.0439 52.317 17.2149 52.029 17.3959 51.879C16.6049 51.047 15.8789 50.236 15.6239 49.862L3.86089 38.61C2.31289 36.048 1.54389 35.504 1.25489 35.333C0.99889 35.28 -0.29211 33.817 0.0598897 32.974C0.0598897 32.248 0.10189 31.223 0.10189 29.27C0.14389 25.885 -0.0581103 24.968 0.83789 23.675C1.60689 22.779 2.06589 22.779 3.85989 19.918L4.25489 19.235H23.1809C25.7429 17.442 31.1659 16.919 37.3789 16C44.0389 15.168 50.9029 14.667 53.2199 14.667L71.9859 15.307C90.9129 15.286 97.8829 13.471 107.853 13.449C112.272 13.449 117.258 13.813 124.058 14.912L124.954 15.04L125.167 15.915C126.566 21.424 131.968 23.761 134.615 26.035C135.094 25.971 135.801 25.907 136.675 25.907C139.034 25.907 142.643 26.323 145.92 28.554C157.769 36.624 164.217 55.967 164.28 66.151C164.28 76.367 166.575 85.879 166.596 93.479C166.596 97.941 165.742 101.901 163.106 104.452L149.922 129.143C144.979 138.409 133.236 152.553 129.256 157.271C129.523 157.751 130.793 159.481 133.301 160.836C136.162 162.502 140.346 164.071 145.438 164.594C148.609 165.106 150.157 167.743 150.029 170.102C149.966 174.789 146.337 179.987 145.941 180.489C145.878 180.51 145.652 180.841 145.652 181.568C145.631 182.486 146.026 183.841 146.571 184.824C147.147 185.869 147.841 186.221 147.884 186.2C147.884 186.2 148.033 186.264 148.471 185.613L149.347 184.194L150.552 185.368C156.019 190.727 156.723 192.232 156.851 193.694C156.958 194.175 155.869 193.235 160.15 196.544L160.896 197.089L160.694 197.985C160.694 198.006 157.748 209.941 157.748 222.249C157.748 228.387 158.484 234.578 160.588 239.349C161.57 242.275 167.537 243.801 168.113 248.285C168.113 249.266 167.697 250.164 166.993 250.975C166.993 252.266 167.035 255.672 167.035 259.322C167.035 261.671 167.014 264.072 166.993 266.144C166.993 266.624 166.972 267.062 166.972 267.542C166.972 278.739 169.053 289.425 169.053 299.203C169.053 306.856 167.74 313.999 162.99 320.147C162.797 320.361 162.552 321.087 162.573 322.293ZM113.918 77.286C114.024 76.89 113.672 76.122 114.697 75.578L119.842 71.948C113.983 69.963 108.89 73.518 103.947 63.462L102.324 63.441L86.6109 65.693L87.5709 63.462C87.7199 63.078 87.8279 62.683 87.8489 62.289C87.4529 62.502 86.9729 62.727 86.5149 62.897C85.6719 65.438 85.7999 66.633 85.7359 67.925C85.7789 69.547 84.7959 71.116 82.2129 72.537V140.417C83.6119 139.958 84.8179 139.787 85.8429 139.787H85.9919C87.9129 139.787 89.3009 140.641 89.8239 140.973C96.8799 138.848 93.9129 121.513 114.046 119.111C114.025 117.318 113.94 114.424 113.94 111.191C114.196 103.195 113.919 93.396 117.409 89.552C116.533 87.074 114.003 80.019 113.918 77.286ZM116.821 319.144C116.906 316.753 118.154 314.64 118.069 313.134C118.027 312.184 117.867 311.554 116.533 310.614L114.782 309.547L116.447 308.362C117.429 307.635 117.738 306.878 117.781 305.522C117.91 301.348 113.105 293.972 112.999 287.022C112.978 283.895 114.131 280.704 117.237 278.28C117.109 269.954 115.883 268.854 114.697 267.594C113.192 266.143 111.292 264.051 111.42 256.546C111.526 252.661 114.963 245.572 114.899 241.462C114.856 239.936 114.525 239.295 113.896 238.996L112.71 238.334L113.298 237.159C113.982 235.846 114.216 234.597 114.216 233.381C114.237 228.983 110.854 225.183 110.832 225.183L108.889 223.016L111.771 222.877C112.209 222.856 112.507 222.792 112.646 222.749C112.507 221.895 110.084 219.269 109.871 216.717C109.829 215.948 110.245 215.009 110.811 214.7C111.206 214.293 111.334 213.963 111.334 213.418C111.59 210.622 105.624 204.996 105.762 205.135C98.9619 201.409 91.1579 193.915 91.0619 193.83L82.2969 184.778C82.4039 189.39 82.5639 197.758 82.5639 205.412C82.5639 210.984 82.4789 216.172 82.1899 219.321L82.1469 219.738L81.8799 220.058C80.5669 221.637 79.9379 224.958 79.9599 228.672C79.9389 236.08 82.1469 244.737 82.1469 244.737L82.2319 245.048L78.4749 263.366L77.7919 263.654C76.0199 264.401 75.3049 265.405 75.1019 267.304L75.0599 267.742C75.1019 269.578 75.9559 270.912 77.7919 271.68L78.6459 272.021V339.006L78.2929 339.423C76.4359 341.441 75.3039 341.878 75.0799 343.531C74.8669 344.823 74.7159 345.655 74.5349 346.264C74.2999 346.617 74.5139 347.033 73.9699 347.449C74.0549 350.886 74.1619 358.796 74.1619 375.737C74.1829 375.737 74.4499 384.46 74.6419 388.152L74.9959 388.483C75.3049 388.856 75.3049 389.187 75.3049 389.358C75.0379 390.96 73.2449 393.799 71.3019 397.621C70.3849 399.329 69.4659 401.015 68.7399 402.276C71.4729 401.911 75.6569 401.208 78.2299 400.225L86.5139 392.721L86.9719 392.7C92.9719 392.593 100.487 379.954 105.515 376.11C110.607 371.938 108.29 357.505 110.5 345.719L110.607 345.196L110.938 344.952H110.959C111.002 344.823 111.108 344.589 111.269 344.301C111.504 343.713 111.834 342.859 112.165 341.878C112.858 339.86 113.648 337.149 114.438 334.373C115.944 328.864 117.278 322.727 117.256 321.083V321.062C116.949 320.435 116.821 319.752 116.821 319.144ZM849.677 379.958C850.33 381.143 851.033 382.851 851.033 385.125C851.033 386.962 850.617 389.053 849.57 391.679C847.617 396.162 848.865 397.433 840.37 438.724L840.058 440.197L838.66 439.779C838.5 439.64 825.734 435.949 822.457 432.875C803.572 414.502 798.608 413.436 790.646 413.414C789.118 413.414 787.432 413.414 785.554 413.414L785.234 413.435L784.154 413.54L783.781 412.602C783.61 412.141 783.568 411.725 783.568 411.266C783.673 404.862 794.189 380.875 796.089 370.584C796.943 366.271 797.562 348.242 797.562 336.041C797.562 330.49 797.402 325.984 797.167 324.523V324.363C797.167 322.526 794.979 307.336 791.478 292.732C788.264 278.066 782.607 263.505 778.892 263.217L777.706 262.907L777.856 261.69C778.933 253.225 781.251 241.664 781.229 237.181C781.272 236.348 781.187 235.931 781.144 235.889C775.914 225.961 765.377 206.202 759.304 203.491C759.518 205.306 759.709 206.79 759.709 208.338C759.709 211.754 758.704 215.01 755.492 221.809C754.073 224.649 752.001 227.563 752.064 229.699L752.085 230.009L752.149 230.383L752.02 230.671V231.172C751.999 240.502 761.137 314.99 761.159 321.961V322.11L761.245 322.943L760.497 323.381L760.263 323.649C760.06 323.883 759.783 324.213 759.559 324.63C759.037 325.42 758.597 326.466 758.597 327.469L758.64 327.779C758.425 328.581 761.287 330.576 761.725 334.067C762.078 338.443 762.441 343.578 762.441 348.829C762.441 356.44 761.747 364.224 759.25 370.255C759.709 378.079 762.975 397.625 762.975 406.868C762.975 408.118 762.932 409.218 762.75 410.136L762.707 410.435L762.516 410.703C761.288 412.517 760.723 412.582 759.346 413.478C759.518 414.941 759.912 417.107 759.912 420.554C759.912 425.284 759.207 432.404 756.549 443.804L755.492 448.298L753.924 443.954C746.119 422.7 733.919 409.87 723.639 401.606C713.349 392.97 705.033 390.43 704.318 385.167C704.489 384.965 716.732 341.112 722.176 335.935C722.635 335.189 722.965 333.107 722.944 330.769C722.944 327.427 722.464 323.49 722.09 320.959C721.044 320.019 720.297 319.357 719.049 318.546L718.42 318.118L718.462 317.329C718.505 316.582 718.505 305.213 718.505 290.61C718.505 262.866 718.462 223.06 718.462 218.907C717.148 216.494 717.83 212.844 717.148 211.799L717.19 211.777L716.647 211.425L714.939 196.235C713.456 194.069 712.536 189.98 711.971 189.916L711.352 189.521L711.331 188.848C711.331 188.806 711.245 185.059 711.245 181.322C711.245 179.668 711.245 178.003 711.331 176.669C710.573 175.356 710.552 173.809 710.2 171.919C709.932 169.784 709.538 167.467 709.196 166.656L709.217 166.571L708.577 166.133L708.64 165.342C708.64 165.342 708.64 164.926 708.64 164.147C708.683 161.841 708.384 156.664 706.963 153.761C705.566 151.925 705.949 149.363 705.587 145.958C705.469 142.958 705.17 139.595 704.882 138.848L704.444 138.56L704.253 120.263C701.315 117.338 700.559 115.674 700.559 114.147C700.559 113.549 700.665 113.166 700.644 113.027C700.665 113.006 700.73 112.418 697.707 110.229L697.228 109.877L697.164 109.311C696.619 105.009 696.332 98.925 696.332 92.83C696.332 86.702 696.619 80.607 697.164 76.305L697.185 75.847L697.515 75.516C703.378 69.784 719.689 61.606 730.544 46.501C727.789 45.498 720.488 43.598 719.005 43.31C718.877 43.416 718.653 43.705 718.396 44.036C717.894 44.666 717.189 45.691 715.792 46.107C714.543 46.459 713.562 47.047 711.991 47.068C710.891 47.068 709.782 46.747 708.512 46L707.858 45.626L707.816 44.89C707.549 39.286 701.23 32.187 694.633 26.679C688.548 21.491 682.912 17.925 681.033 16.334L668.062 13.516L668.308 10.805L719.73 9.386C724.363 7.24 725.323 6.909 728.686 6.973C732.165 6.781 732.89 8.307 734.707 10.805H753.439L753.652 11.179C753.857 11.264 754.134 11.393 754.508 11.5C755.298 11.831 756.429 12.226 757.783 12.663C760.495 13.602 764.083 14.734 767.647 15.876C774.639 18.086 781.567 20.157 781.524 20.2C782.399 20.2 783.584 20.158 784.92 20.158C786.191 20.158 787.673 20.2 789.22 20.425C795.37 21.236 800.921 25.25 805.427 28.954C809.642 32.669 813.645 36.032 813.88 35.754H814.755L832.924 74.119C833.489 75.806 833.564 78.667 833.564 82.115C833.564 88.701 833.063 96.771 833.063 96.771L832.966 97.443L832.465 97.818C832.422 97.818 831.59 99.483 831.131 101.319C830.566 102.953 830.277 104.5 829.476 105.707C829.539 107.724 829.561 109.944 829.561 112.047C829.561 116.616 829.476 120.662 829.412 120.993C822.762 147.136 810.455 168.143 787.738 168.998C787.759 172.189 787.844 174.132 787.844 175.445C787.886 178.199 787.108 178.775 785.593 180.217C785.923 180.238 786.211 180.238 786.51 180.238C789.178 180.28 791.431 179.256 794.408 179.203C798.625 179.203 803.237 181.573 810.891 190.816C816.004 193.154 814.733 199.431 815.459 201.812C815.673 202.708 815.833 202.772 816.09 202.857C818.82 203.871 820.317 204.459 821.342 205.024C822.365 205.504 823.134 206.775 823.016 207.628C822.995 208.129 822.932 208.46 822.974 208.855C822.974 209.614 823.091 210.755 824.116 212.912C825.185 215.645 825.538 223.896 826.872 224.815C828.29 227.473 828.333 235.628 828.727 244.317C828.919 252.644 829.688 261.717 830.192 261.802V261.823C831.11 262.635 830.896 263.393 831.249 264.385C831.462 265.538 831.653 266.894 831.964 268.229C832.465 271.068 833.564 272.776 834.215 272.647C834.439 272.647 834.919 272.508 835.679 272.049L836.906 271.271L837.579 272.53C839.371 276.032 843.812 311.366 844.336 314.184L844.421 314.748L844.144 315.228C843.269 316.125 841.956 326.597 841.956 328.283C842.201 328.679 843.439 329.138 845.586 329.662L846.131 329.789L846.418 330.269C847.773 332.542 851.009 339.61 851.201 343.302L851.361 343.806L850.965 344.37C849.8 346.077 849.587 346.975 849.566 347.999C849.523 349.921 850.923 352.964 850.923 359.87C850.923 364.183 850.4 369.969 848.691 378.369L848.861 378.604C849.047 378.933 849.346 379.393 849.677 379.958ZM784.818 125.439C784.818 121.618 785.597 117.732 785.597 117.657L785.949 116.003L786.76 116.377C786.91 116.067 787.091 115.63 787.24 115.191C787.678 114.252 787.763 113.249 788.553 112.373L788.596 104.943C788.596 104.943 789.012 103.449 789.012 100.802C789.012 97.46 788.328 92.432 785.278 86.882C785.235 86.818 779.855 79.228 773.448 71.617C767.151 63.952 759.146 56.448 756.114 56.715C755.303 56.694 754.577 56.672 753.884 56.672H753.135V161.628C754.161 161.713 755.741 161.798 757.352 161.798C758.707 161.819 760.171 161.734 761.291 161.521C767.065 160.485 773.183 156.291 774.645 154.348C777.921 150.302 782.565 134.055 784.968 128.11C784.84 127.254 784.818 126.358 784.818 125.439ZM984.692 167.818C984.649 175.547 984.393 182.176 983.295 185.389L983.145 185.805L982.793 186.072C981.83 186.415 980.08 192.542 977.926 195.274C977.851 196.085 977.829 196.982 977.829 197.878C977.829 202.116 978.427 207.144 978.427 212.023C978.427 216.282 977.989 220.435 976.153 223.893C973.069 230.95 969.193 234.804 967.839 236.084L965.542 253.58C962.202 262.194 964.208 263.893 962.928 266.433C963.163 269.774 964.955 296.429 964.955 316.434C964.955 325.219 964.624 332.649 963.536 336.855C961.112 342.469 960.802 348.608 960.802 355.108C960.802 356.86 960.823 358.62 960.823 360.415C960.802 367.15 960.557 374.174 957.857 380.856L954.131 400.86C951.033 409.454 950.959 411.311 946.764 416.403C944.886 420.257 944.075 421.409 942.965 422.2C941.962 422.927 941.802 422.638 940.028 424.622C938.46 428.733 931.199 429.874 922.853 432.544C913.993 434.966 903.873 437.507 898.93 440.198C898.535 440.305 898.215 440.327 897.906 440.327C894.148 440.1 889.291 435.778 887.519 436.013L887.285 436.056C885.789 438.767 881.842 439.343 877.197 440.454C872.244 441.436 866.533 442.034 862.925 442.034C861.281 442.013 860.298 442.013 859.274 441.542L857.663 440.679L858.965 439.386C864.153 434.156 869.415 425.413 870.333 415.005C870.354 414.46 870.376 413.853 870.376 413.212C870.407 405.058 866.226 393.784 866.204 393.784L865.745 392.535L866.972 392.056C872.064 390.219 882.76 385.212 882.013 383.312C882.013 382.255 881.8 381.796 881.746 381.732L881.597 381.689L881.245 381.646C880.57 381.646 879.173 381.689 878.425 380.078L874.294 369.863L867.058 353.177L873.622 288.147C865.444 279.222 857.855 253.625 857.663 251.169V240.61C857.962 237.557 854.438 237.097 854.118 232.069C854.118 232.069 853.264 219.292 853.264 209.546C853.307 205.329 853.35 201.914 853.894 199.757C852.998 198.924 852.283 198.326 851.184 197.59L850.512 197.152L851.973 172.386C851.184 170.955 851.141 169.12 850.66 166.782C850.265 164.209 849.826 161.381 849.41 160.313L849.463 160.164L848.823 159.726V87.298L849.463 86.882C850.596 86.092 851.344 85.388 852.389 84.502V56.555L852.997 56.139C854.139 55.381 854.896 54.656 855.934 53.78V33.892C852.283 30.391 825.522 4.964 824.271 3.437L822.5 1.207H842.984L843.4 1.9C844.104 3.17 844.734 3.982 845.546 5.07H857.544L857.769 6.169C857.523 9.703 874.623 11.721 882.758 20.399H894.446L894.862 21.071C896.07 23.132 897.179 24.221 898.758 26.163H910.425L910.842 26.847C911.569 28.117 912.177 28.949 912.988 29.996H928.199L928.594 30.668C929.321 31.96 929.907 32.793 930.74 33.838H947.245L947.661 34.501C952.956 43.158 963.321 48.794 965.475 52.861C977.55 78.203 975.094 80.413 979.225 83.049L979.823 83.465L978.842 120.132C979.717 121.509 980.079 123.538 980.869 125.972C981.616 128.587 982.493 131.48 982.909 132.045L983.315 132.334L983.368 133.027C983.369 133.029 984.692 152.383 984.692 167.818ZM930.891 228.11C930.87 218.246 936.036 214.008 937.852 212.845C938.482 209.172 941.042 191.902 946.241 187.268V152.116C943.637 149.842 942.507 145.038 941.257 140.203C940.029 135.111 938.92 129.603 938.525 129.187C934.416 123.082 925.843 120.946 925.01 111.456C916.558 110.539 915.413 103.215 912.116 103.888C905.336 103.867 901.868 103.365 896.744 103.365C895.131 103.365 893.36 103.408 891.3 103.536L889.879 116.836L890.882 121.426C890.882 121.426 892.378 160.047 892.378 174.523C892.357 175.793 892.357 176.797 892.357 177.629L892.443 177.714C892.816 178.397 893.232 179.273 893.595 180.116C894.384 181.867 895.089 183.553 895.131 183.553L895.194 183.82V184.077C894.907 188.368 899.54 205.501 901.58 205.917L902.306 206.312L901.794 375.871C907.046 369.445 918.851 353.026 918.809 336.566C918.809 335.978 918.809 335.38 918.809 334.356C922.79 320.755 927.179 316.209 928.512 308.47L928.491 308.149C928.554 303.901 928.427 238.496 930.956 229.861C930.934 229.262 930.891 228.675 930.891 228.11ZM327.915 374.717L325.716 373.841C323.239 372.86 321.948 372.721 320.506 372.699C319.791 372.699 319.002 372.774 318.063 372.774H317.336L317.08 372.421L316.664 372.358C315.894 372.358 314.209 372.657 311.263 374.139L310.536 374.514L309.885 374.053C308.883 373.253 302.776 372.528 295.977 372.592C285.418 372.549 272.108 373.819 268.542 375.281C263.493 380.181 262.137 381.398 260.258 381.622H260.194C259.405 381.622 258.84 381.121 258.733 380.992V380.971L258.775 380.95L258.733 380.971C256.459 380.288 256.32 378.494 253.833 376.948L252.628 376.093L253.524 374.974C263.761 362.163 258.05 366.038 269.793 358.171C272.547 349.791 272.879 320.915 272.804 312.184V308.843L273.402 308.47C276.635 306.025 276.455 306.025 276.508 305.17C276.529 304.562 276.391 303.484 276.348 301.915C276.657 299.352 272.921 297.218 272.804 290.395C272.921 285.625 274.405 278.717 277.51 275.26L276.348 123.677L276.87 123.261C278.013 122.343 278.888 121.787 279.453 121.425C279.721 121.265 279.891 121.158 279.976 121.116L279.933 120.699C280.039 120.111 278.994 119.908 276.987 118.756L276.411 118.34L271.842 41.193C270.988 37.82 267.936 36.71 264.349 35.653C261.435 34.778 257.7 33.998 256.801 30.668C253.483 30.647 252.147 30.433 250.994 29.185C250.022 28.053 249.894 27.082 246.532 24.659L245.369 23.826L246.244 22.716C247.557 21.008 249.286 18.82 249.703 18.105L250.205 17.145L251.251 17.444C254.815 18.479 271.234 19.173 286.713 19.152C300.92 19.173 315 18.522 317.734 17.465L318.78 17.049L319.378 18.084C320.691 20.294 321.845 21.339 323.681 23.635L323.991 24.01V31.31L322.986 31.566C314.33 33.915 304.947 41.89 305.138 48.518C305.255 53.781 305.822 53.407 306.196 53.717C307.242 54.069 308.95 55.681 308.662 60.037C308.748 63.463 306.868 65.343 305.49 66.356C304.051 67.531 303.421 67.819 303.345 69.633C303.345 81.045 304.967 111.799 304.967 137.866C304.967 150.484 304.572 162.023 303.462 169.869C304.657 171.117 304.615 172.89 305.052 174.747C305.405 176.978 305.757 179.465 306.196 180.34L306.302 180.564L306.847 180.884L308.789 192.147L308.073 192.648C306.654 193.63 305.863 194.111 304.774 195.317C302.756 197.484 302.149 200.718 302.149 203.974C302.149 207.358 302.778 210.507 302.799 212.504C302.756 213.507 302.426 214.254 302.426 216.613C302.426 218.535 302.671 221.46 303.612 225.794C304.028 228.089 303.591 232.851 304.113 235.37C304.241 236.203 304.401 236.416 304.466 236.394L305.031 236.704L305.116 237.356C305.469 239.671 305.575 242.052 305.575 244.219C305.575 248.596 305.137 252.118 305.116 252.161L305.031 252.77L304.509 253.123C303.11 254.062 302.384 254.606 301.189 255.813C298.808 258.279 298.168 260.072 298.147 262.154C298.06 266.371 301.562 272.23 301.584 282.574V283.994C301.883 286.002 305.342 296.057 306.452 297.348L307.007 297.764L305.096 324.718L304.51 325.091C303.004 326.116 302.236 326.512 301.297 327.718C300.153 329.116 299.834 330.376 299.791 331.87C299.791 334.069 300.772 336.759 301.542 339.983C304.467 352.067 303.463 345.331 325.645 361.332L326.104 361.664L327.915 374.717ZM453.696 452.044H403.972L403.588 451.341C402.862 450.112 402.232 449.29 401.421 448.193H389.786L389.39 447.541C387.298 444.232 386.487 444.189 385.761 444.146C385.302 444.125 384.609 444.306 383.669 444.349C381.896 444.349 379.858 443.474 377.478 440.517H343.392C337.821 440.197 336.4 437.046 335.419 435.404C328.352 434.838 284.041 434.752 260.61 434.752H245.911H245.153L244.735 434.111C243.487 431.486 234.637 428.849 234.37 428.998H221.454C218.871 430.686 200.788 442.459 199.282 447.295L198.844 448.354L197.756 448.151C197.735 448.151 186.344 446.272 176.791 446.272C172.019 446.251 167.652 446.815 165.859 447.979L164.631 448.737L163.948 447.499C163.125 446.069 162.464 445.269 160.808 444.126L159.602 443.251L160.498 442.14C163.028 438.886 162.793 440.765 163.775 436.035L163.904 435.363L174.312 429.834C178.378 425.809 177.812 427.561 186.843 419.34V402.881L187.452 402.485C188.369 401.94 190.472 400.714 190.408 398.835C190.429 397.352 189.373 396.562 187.43 395.142L186.842 394.726V365.476L187.451 365.06C188.592 364.292 189.372 363.587 190.407 362.691V350.148L190.972 349.732C194.292 347.308 194.025 347.522 194.025 346.871C194.025 346.391 193.94 345.473 193.94 344.16C193.961 339.537 190.556 336.9 187.429 334.691L186.841 334.275L186.724 285.459L187.578 285.106C189.97 283.964 189.137 284.391 190.353 282.416C189.724 277.806 189.51 273.461 189.51 269.691C189.51 261.91 190.406 256.594 190.428 256.551L190.513 255.964L190.993 255.633C192.125 254.874 192.915 254.17 193.939 253.295V214.781L194.559 214.386C195.359 213.969 198.625 209.422 198.487 206.006V205.398C198.273 202.473 195.562 198.993 194.559 198.406L193.939 198.011V144.146C192.936 143.227 192.189 142.565 190.993 141.776L190.406 141.392V112.111L190.971 111.695C193.725 109.752 194.921 107.917 197.547 105.472C197.729 103.433 198.294 95.897 198.294 89.139C198.294 85.446 198.092 81.944 197.633 79.928C196.543 78.967 195.796 78.316 194.559 77.483L193.33 76.629L194.248 75.498C195.796 73.641 200.279 61.876 200.173 58.493V58.22C199.34 48.335 194.141 38.61 194.024 38.44C193.875 37.127 189.745 36.252 186.948 36.379C186.382 36.379 185.901 36.4 185.528 36.4L185.239 36.966L183.99 36.271C179.839 33.144 185.368 31.041 166.111 16.982L164.958 16.106L165.854 14.996C168.383 11.783 168.127 13.619 169.11 8.869L169.324 7.78H175.664L176.08 8.463C176.808 9.723 177.393 10.555 178.226 11.602H206.729L207.125 12.264C211.191 18.818 213.71 19.63 215.322 19.63C216.507 19.651 217.553 19.065 219.133 19.022C219.677 19.022 220.308 19.171 221.225 19.833C221.268 19.833 232.338 33.582 236.95 36.838L237.516 37.233V73.196L236.928 73.612C234.365 75.576 234.078 75.619 233.971 78.245V78.458L233.928 78.554C233.928 78.789 234.239 81.265 240.483 85.781L241.039 86.176V102.968L240.441 103.406C239.288 104.174 238.519 104.803 237.516 105.722V181.3C240.707 184.119 242.543 184.258 244.444 188.036C246.131 191.559 246.462 200.803 246.525 212.301C246.525 235.102 244.603 265.494 244.603 265.494L244.549 266.176L244.006 266.561C242.811 267.35 242.063 267.993 241.038 268.91V294.551C242.105 295.447 243.023 296.238 244.026 296.932L244.485 297.242L244.57 297.806C244.838 299.227 244.881 301.81 244.901 304.841C244.901 310.841 244.602 318.249 244.602 318.271L244.548 319.36L243.46 319.541C239.105 320.235 239.456 323.096 237.643 328.562C240.333 332.394 241.101 331.764 241.038 335.296V336.44C241.315 340.741 240.312 341.33 237.516 343.785V360.181L236.928 360.619C235.722 361.431 234.953 362.06 233.971 362.935V387.071L233.384 387.487C231.111 389.152 231.196 389.846 230.342 392.515C230.151 393.123 230.086 393.518 230.086 393.7C229.092 393.913 233.779 393.956 233.971 404.182C240.483 404.321 245.319 405.121 251.35 405.121C254.413 405.121 257.83 404.908 261.96 404.299C264.906 399.752 266.369 399.25 272.165 395.578C272.687 395.461 273.255 395.375 273.81 395.375C279.862 395.482 290.75 400.883 302.77 400.861C308.503 400.861 314.407 399.656 320.063 396.101C320.833 393.89 323.063 393.785 325.988 393.015C329.266 392.386 333.792 391.906 339.301 391.552C350.232 390.849 364.866 390.614 379.726 390.614C411.367 390.614 444.063 391.724 444.095 391.724L445.398 391.745V437.177L445.441 437.156C445.558 437.369 445.708 437.722 445.879 438.117C446.252 438.971 446.828 440.101 447.479 441.437C448.793 444.041 450.543 447.296 452.262 449.902L453.696 452.044ZM1000 24.595C1000 29.035 997.834 35.024 983.123 35.024C968.371 35.024 966.053 29.035 966.053 24.595V10.429C966.053 6.095 968.371 0 983.123 0C997.834 0 1000 6.095 1000 10.429V24.595ZM997.031 10.163C997.031 6.801 994.726 2.797 983.123 2.797C971.465 2.797 969.064 6.8 969.064 10.163V24.862C969.064 28.224 971.464 32.313 983.123 32.313C994.727 32.313 997.031 28.31 997.031 24.926V10.163ZM978.661 20.527V27.743C978.661 28.138 978.512 28.469 978.074 28.469H976.301C975.8 28.469 975.651 28.138 975.651 27.743V7.931C975.651 7.451 975.8 7.216 976.301 7.216H983.893C990.008 7.216 991.513 10.162 991.513 12.916V14.848C991.513 16.898 990.532 19.172 987.426 20.111L990.735 27.743C990.84 28.138 990.532 28.469 990.073 28.469H988.216C987.821 28.469 987.673 28.138 987.523 27.743L984.459 20.527H983.895H978.661ZM978.661 9.618V18.125H983.56C987.018 18.125 988.482 16.439 988.482 14.667V13.076C988.482 11.305 987.103 9.618 983.56 9.618H978.661Z" fill="#050066"/>
</g>
<defs>
<clipPath id="clip0_580_2">
<rect width="1000" height="520.683" fill="white"/>
</clipPath>
</defs>
</svg>
