<svg width="400" height="260" viewBox="0 0 400 260" fill="none" xmlns="http://www.w3.org/2000/svg">
<rect width="400" height="260" fill="#F5F5F5"/>
<path d="M58.7775 131.416C56.7732 131.416 55.1029 133.266 55.1029 135.485C55.1029 137.767 56.7732 139.555 58.7775 139.555C60.8374 139.555 62.452 137.705 62.452 135.485C62.452 133.266 60.7817 131.416 58.7775 131.416ZM47.7538 119.208C45.7495 119.208 44.0793 121.058 44.0793 123.277C44.0793 125.559 45.7495 127.347 47.7538 127.347C49.8138 127.347 51.4284 125.497 51.4284 123.277C51.4284 121.058 49.7581 119.208 47.7538 119.208ZM47.7538 143.686C45.7495 143.686 44.0793 145.535 44.0793 147.755C44.0793 149.975 45.7495 151.824 47.7538 151.824C49.8138 151.824 51.4284 149.975 51.4284 147.755C51.4284 145.474 49.7581 143.686 47.7538 143.686ZM47.7538 131.416C45.7495 131.416 44.0793 133.266 44.0793 135.485C44.0793 137.705 45.7495 139.555 47.7538 139.555C49.8138 139.555 51.4284 137.705 51.4284 135.485C51.4284 133.266 49.7581 131.416 47.7538 131.416ZM36.6745 131.416C34.6146 131.416 33 133.266 33 135.485C33 137.767 34.6702 139.555 36.6745 139.555C38.6788 139.555 40.3491 137.705 40.3491 135.485C40.3491 133.266 38.7345 131.416 36.6745 131.416ZM360.869 151.824H367.049V107.555H360.869V151.824ZM292.946 151.824H299.07V119.208H292.946V151.824ZM295.952 107C293.948 107 292.278 108.85 292.278 111.069C292.278 113.289 293.948 115.139 295.952 115.139C298.012 115.139 299.627 113.289 299.627 111.069C299.683 108.788 298.012 107 295.952 107ZM349.345 139.555C349.345 144.734 346.672 147.94 342.385 147.94C338.933 147.94 337.04 145.844 337.04 142.699C337.04 139.123 339.267 136.903 344.167 136.903H349.345V139.555ZM343.387 118.221C338.544 118.221 335.147 120.071 332.586 122.537V127.655C335.092 124.572 338.21 123.031 341.773 123.031C346.449 123.031 349.4 125.867 349.4 131.724V133.019H343.833C335.092 133.019 330.861 137.027 330.861 142.822C330.861 148.371 334.758 152.626 340.325 152.626C344.835 152.626 347.897 150.098 349.4 146.46V151.763H355.524V131.478C355.469 123.092 351.07 118.221 343.387 118.221ZM234.432 131.416C235.155 126.237 237.828 122.661 242.282 122.661C246.402 122.661 249.185 125.62 249.297 131.416H234.432ZM242.449 118.221C233.485 118.221 227.695 125.312 227.695 135.239C227.695 145.782 234.265 152.749 243.618 152.749C248.295 152.749 252.136 150.961 254.53 148.371V144.179C252.303 146.583 248.796 147.94 245.288 147.94C238.941 147.94 234.543 143.686 234.209 135.362H255.477V133.204C255.421 123.771 250.355 118.221 242.449 118.221ZM319.558 147.94C312.989 147.94 309.426 142.514 309.426 135.424C309.426 128.148 313.267 123.154 319.391 123.154C322.676 123.154 325.404 124.51 327.798 127.717V122.599C325.627 119.948 322.342 118.283 318.111 118.283C309.147 118.283 302.856 125.805 302.856 135.609C302.856 145.35 309.203 152.872 318.055 152.872C321.786 152.872 325.182 151.516 328.188 148.186V143.686C326.128 146.337 322.843 147.94 319.558 147.94ZM272.847 147.817C267.948 147.817 264.719 143.007 264.719 135.67C264.719 128.21 268.004 123.154 273.07 123.154C278.248 123.154 281.366 128.148 281.366 135.362C281.366 142.699 277.914 147.817 272.847 147.817ZM281.254 125.312C279.361 120.811 276.021 118.221 271.622 118.221C264.051 118.221 258.093 125.744 258.093 135.794C258.093 145.659 263.661 152.749 271.01 152.749C276.076 152.749 279.695 149.42 281.254 145.042V151.763H287.378V107.493H281.254V125.312ZM122.581 118.221C117.737 118.221 114.508 121.181 112.893 125.682V119.208H106.769V151.824H112.893V133.882C112.893 127.778 115.622 123.894 120.465 123.894C124.864 123.894 126.701 126.792 126.701 132.896V151.824H132.825V131.478C132.825 123.092 128.761 118.221 122.581 118.221ZM88.1738 148.248C83.1631 148.248 80.101 143.254 80.101 135.547C80.101 127.778 83.1631 122.784 88.1738 122.784C93.2959 122.784 96.358 127.778 96.358 135.547C96.358 143.254 93.3516 148.248 88.1738 148.248ZM88.1738 118.221C79.7113 118.221 73.4756 125.744 73.4756 135.547C73.4756 145.35 79.6556 152.811 88.1738 152.811C96.8034 152.811 102.983 145.35 102.983 135.547C102.983 125.744 96.8034 118.221 88.1738 118.221ZM143.236 131.416C144.016 126.237 146.632 122.661 151.142 122.661C155.206 122.661 157.99 125.62 158.101 131.416H143.236ZM151.253 118.221C142.29 118.221 136.555 125.312 136.555 135.239C136.555 145.782 143.069 152.749 152.423 152.749C157.099 152.749 160.941 150.961 163.391 148.371V144.179C161.108 146.583 157.656 147.94 154.149 147.94C147.746 147.94 143.348 143.686 143.069 135.362H164.281V133.204C164.226 123.771 159.159 118.221 151.253 118.221ZM214.89 118.221C210.826 118.221 207.708 120.811 205.982 125.127C204.701 120.749 201.528 118.221 197.631 118.221C193.678 118.221 190.894 120.811 189.446 125.004V119.146H183.266V151.763H189.446V132.279C189.446 127.285 191.729 123.771 195.404 123.771C198.855 123.771 200.637 126.36 200.637 131.354V151.763H206.761V131.724C206.761 127.038 209.044 123.771 212.774 123.771C216.226 123.771 217.841 126.36 217.841 131.539V151.763H223.965V130.306C224.02 122.784 220.457 118.221 214.89 118.221Z" fill="#050066"/>
</svg>
