<svg width="400" height="260" viewBox="0 0 400 260" fill="none" xmlns="http://www.w3.org/2000/svg">
<rect width="400" height="260" fill="#F5F5F5"/>
<path d="M123.098 127.977C117.779 126.092 115.539 124.962 115.539 120.815C115.539 117.8 117.499 115.538 120.998 115.538C124.638 115.538 126.738 117.612 128.418 120.438L132.757 115.538C129.957 110.638 126.318 108 120.858 108C113.999 108 109.52 113.277 109.52 121.004C109.52 129.296 113.579 132.877 120.439 135.327C126.458 137.588 128.838 139.285 128.838 143.431C128.838 147.2 126.318 149.65 121.838 149.65C117.219 149.65 113.719 146.823 111.619 142.112L107 146.446C110.22 153.042 115.259 157 121.838 157C130.097 157 134.997 151.723 134.997 142.865C135.137 134.573 130.517 130.615 123.098 127.977Z" fill="#050066"/>
<path d="M168.843 117.046C166.567 111.204 162.551 108 157.197 108C147.961 108 141 118.554 141 132.5C141 146.446 147.961 157 157.197 157C162.685 157 166.567 153.796 168.843 147.954V155.869H175V108.942H168.843V117.046ZM158.402 149.273C151.843 149.273 147.559 142.3 147.559 132.5C147.559 122.512 151.843 115.538 158.402 115.538C164.827 115.538 169.11 122.512 169.11 132.5C169.11 142.3 164.827 149.273 158.402 149.273Z" fill="#050066"/>
<path d="M224.661 108C219.177 108 215.339 110.835 212.734 116.693C210.677 110.835 207.113 108 202.452 108C197.79 108 194.226 110.646 192.306 115.559V109.134H186V156H192.306V129.165C192.306 120.661 195.46 115.937 201.081 115.937C205.879 115.937 208.347 119.906 208.347 127.276V156H214.653V128.787C214.653 120.472 217.806 115.748 223.427 115.748C228.226 115.748 230.694 119.528 230.694 126.898V155.811H237V126.142C236.863 114.803 231.79 108 224.661 108Z" fill="#050066"/>
<path d="M259.098 127.977C253.779 126.092 251.539 124.962 251.539 120.815C251.539 117.8 253.499 115.538 256.998 115.538C260.638 115.538 262.738 117.612 264.418 120.438L268.757 115.538C265.957 110.638 262.318 108 256.858 108C249.999 108 245.52 113.277 245.52 121.004C245.52 129.296 249.579 132.877 256.439 135.327C262.458 137.588 264.838 139.285 264.838 143.431C264.838 147.2 262.318 149.65 257.838 149.65C253.219 149.65 249.719 146.823 247.619 142.112L243 146.446C246.22 153.042 251.259 157 257.838 157C266.097 157 270.997 151.723 270.997 142.865C271.137 134.573 266.517 130.615 259.098 127.977Z" fill="#050066"/>
<path d="M304.843 117.046C302.567 111.204 298.551 108 293.197 108C283.961 108 277 118.554 277 132.5C277 146.446 283.961 157 293.197 157C298.685 157 302.567 153.796 304.843 147.954V155.869H311V108.942H304.843V117.046ZM294.268 149.273C287.709 149.273 283.425 142.3 283.425 132.5C283.425 122.512 287.709 115.538 294.268 115.538C300.693 115.538 304.976 122.512 304.976 132.5C304.976 142.3 300.827 149.273 294.268 149.273Z" fill="#050066"/>
<path d="M372.661 109.131V117.046C370.319 111.204 366.185 108 360.673 108C351.165 108 344 118.554 344 132.5C344 146.446 351.165 157 360.673 157C366.323 157 370.319 153.796 372.661 147.954V155.869H379V109.131H372.661ZM361.913 149.462C355.161 149.462 350.752 142.488 350.752 132.688C350.752 122.7 355.161 115.727 361.913 115.727C368.528 115.727 372.937 122.7 372.937 132.688C372.937 142.488 368.528 149.462 361.913 149.462Z" fill="#050066"/>
<path d="M337.918 108L328.122 120.094V109.134H322V156H328.122V131.622L342 114.614L337.918 108Z" fill="#050066"/>
<path d="M75.3334 84.2178C74.1112 84.2178 72.7779 84.5946 71.4445 85.3482C70.889 85.725 70.2223 85.725 69.6668 85.3482C68.3334 84.5946 67.1112 84.2178 65.7779 84.2178C58.4445 84.2178 52.3334 96.6526 52.3334 111.16C52.3334 127.363 59.6668 141.87 70.2223 146.203C70.4445 146.203 70.6668 146.203 70.889 146.203C81.4445 141.87 88.7779 127.551 88.7779 111.16C88.7779 96.4641 82.5557 84.2178 75.3334 84.2178ZM83.7779 109.653C83.2223 111.913 82.3334 113.609 81.1112 114.74C80.1112 115.87 78.889 116.435 77.6668 116.435C77.1112 116.435 76.6668 115.682 76.6668 114.928C76.6668 113.986 77.1112 113.232 77.5557 113.232C78.4445 113.232 79.2223 112.667 80.0001 111.913C80.889 110.971 81.4445 109.841 81.889 108.145C82.1112 107.203 82.1112 106.073 81.7779 105.319C81.4445 104.377 80.889 104 80.3334 103.812C79.0001 103.624 78.0001 104.377 77.1112 105.696C75.7779 107.957 75.2223 112.102 75.0001 113.797C74.7779 115.305 72.5557 131.319 71.6668 137.913C71.5557 138.855 71.0001 139.609 70.3334 139.609C69.6668 139.609 69.2223 138.855 69.0001 137.913L68.6668 135.464C67.6668 128.116 65.7779 115.116 65.6668 113.797C65.4445 112.102 64.889 107.957 63.5557 105.696C62.7779 104.377 61.6668 103.624 60.3334 103.812C59.7779 103.812 59.2223 104.377 58.889 105.319C58.5557 106.261 58.5557 107.203 58.7779 108.145C59.2223 109.653 59.889 110.971 60.6668 111.913C61.4445 112.667 62.2223 113.044 63.1112 113.232C63.6668 113.232 64.0001 113.986 64.0001 114.928C64.0001 115.87 63.5557 116.435 63.0001 116.435C61.7779 116.435 60.6668 115.682 59.5557 114.74C58.4445 113.421 57.5557 111.725 56.889 109.653C56.4445 107.768 56.4445 105.508 57.1112 103.812C57.7779 102.116 58.889 100.986 60.0001 100.797C61.7779 100.609 63.4445 101.551 64.6668 103.624C66.4445 106.638 67.0001 111.348 67.3334 113.232C67.5557 114.551 69.1112 125.855 70.1112 133.392C71.1112 125.855 72.7779 114.551 72.889 113.232C73.1112 111.16 73.7779 106.45 75.5557 103.624C76.7779 101.551 78.3334 100.609 80.2223 100.797C81.4445 100.986 82.5557 102.116 83.1112 103.812C84.2223 105.508 84.2223 107.768 83.7779 109.653Z" fill="#050066"/>
<path d="M70.5557 72.7248C57.5557 72.7248 47.0001 90.6234 47.0001 112.667V147.145C47.0001 169.189 57.5557 187.087 70.5557 187.087C83.5557 187.087 94.1112 169.189 94.1112 147.145V112.667C94.1112 90.6234 83.5557 72.7248 70.5557 72.7248ZM53.4446 155.058C53.4446 156 53.0001 156.754 52.4446 156.754C51.889 156.754 51.4446 156 51.4446 155.058V152.797C51.4446 151.855 51.889 151.102 52.4446 151.102C53.0001 151.102 53.4446 151.855 53.4446 152.797V155.058ZM53.4446 144.884C53.4446 145.826 53.0001 146.58 52.4446 146.58C51.889 146.58 51.4446 145.826 51.4446 144.884V142.623C51.4446 141.681 51.889 140.928 52.4446 140.928C53.0001 140.928 53.4446 141.681 53.4446 142.623V144.884ZM59.4446 170.319C59.4446 171.261 59.0001 172.015 58.4446 172.015C57.889 172.015 57.4446 171.261 57.4446 170.319V168.058C57.4446 167.116 57.889 166.363 58.4446 166.363C59.0001 166.363 59.4446 167.116 59.4446 168.058V170.319ZM59.4446 160.145C59.4446 161.087 59.0001 161.841 58.4446 161.841C57.889 161.841 57.4446 161.087 57.4446 160.145V157.884C57.4446 156.942 57.889 156.189 58.4446 156.189C59.0001 156.189 59.4446 156.942 59.4446 157.884V160.145ZM65.4446 175.406C65.4446 176.348 65.0001 177.102 64.4446 177.102C63.889 177.102 63.4446 176.348 63.4446 175.406V173.145C63.4446 172.203 63.889 171.449 64.4446 171.449C65.0001 171.449 65.4446 172.203 65.4446 173.145V175.406ZM65.4446 165.232C65.4446 166.174 65.0001 166.928 64.4446 166.928C63.889 166.928 63.4446 166.174 63.4446 165.232V162.971C63.4446 162.029 63.889 161.276 64.4446 161.276C65.0001 161.276 65.4446 162.029 65.4446 162.971V165.232ZM71.4446 170.319C71.4446 171.261 71.0001 172.015 70.4446 172.015C69.889 172.015 69.4446 171.261 69.4446 170.319V168.058C69.4446 167.116 69.889 166.363 70.4446 166.363C71.0001 166.363 71.4446 167.116 71.4446 168.058V170.319ZM71.4446 160.145C71.4446 161.087 71.0001 161.841 70.4446 161.841C69.889 161.841 69.4446 161.087 69.4446 160.145V157.884C69.4446 156.942 69.889 156.189 70.4446 156.189C71.0001 156.189 71.4446 156.942 71.4446 157.884V160.145ZM77.5557 175.406C77.5557 176.348 77.1112 177.102 76.5557 177.102C76.0001 177.102 75.5557 176.348 75.5557 175.406V173.145C75.5557 172.203 76.0001 171.449 76.5557 171.449C77.1112 171.449 77.5557 172.203 77.5557 173.145V175.406ZM77.5557 165.232C77.5557 166.174 77.1112 166.928 76.5557 166.928C76.0001 166.928 75.5557 166.174 75.5557 165.232V162.971C75.5557 162.029 76.0001 161.276 76.5557 161.276C77.1112 161.276 77.5557 162.029 77.5557 162.971V165.232ZM83.5557 170.319C83.5557 171.261 83.1112 172.015 82.5557 172.015C82.0001 172.015 81.5557 171.261 81.5557 170.319V168.058C81.5557 167.116 82.0001 166.363 82.5557 166.363C83.1112 166.363 83.5557 167.116 83.5557 168.058V170.319ZM83.5557 160.145C83.5557 161.087 83.1112 161.841 82.5557 161.841C82.0001 161.841 81.5557 161.087 81.5557 160.145V157.884C81.5557 156.942 82.0001 156.189 82.5557 156.189C83.1112 156.189 83.5557 156.942 83.5557 157.884V160.145ZM89.5557 155.058C89.5557 156 89.1112 156.754 88.5557 156.754C88.0001 156.754 87.5557 156 87.5557 155.058V152.797C87.5557 151.855 88.0001 151.102 88.5557 151.102C89.1112 151.102 89.5557 151.855 89.5557 152.797V155.058ZM89.5557 144.884C89.5557 145.826 89.1112 146.58 88.5557 146.58C88.0001 146.58 87.5557 145.826 87.5557 144.884V142.623C87.5557 141.681 88.0001 140.928 88.5557 140.928C89.1112 140.928 89.5557 141.681 89.5557 142.623V144.884ZM71.3335 149.218C71.1112 149.406 70.7779 149.406 70.5557 149.406C70.3335 149.406 70.0001 149.406 69.7779 149.218C58.4446 144.696 50.4446 129.058 50.4446 111.16C50.4446 94.7683 57.4446 81.0147 65.7779 81.0147C67.2223 81.0147 68.7779 81.3915 70.2223 82.3335C70.4446 82.5219 70.6668 82.5219 70.7779 82.3335C72.2223 81.5799 73.7779 81.0147 75.2223 81.0147C83.5557 81.0147 90.5557 94.7683 90.5557 111.16C90.6668 129.058 82.6668 144.696 71.3335 149.218Z" fill="#050066"/>
</svg>
