<svg width="400" height="260" viewBox="0 0 400 260" fill="none" xmlns="http://www.w3.org/2000/svg">
<rect width="400" height="260" fill="#F5F5F5"/>
<path d="M392.994 143.316C392.994 145.106 391.775 146.399 390.123 146.399C388.478 146.399 387.253 145.106 387.253 143.316C387.253 141.526 388.478 140.229 390.123 140.229C391.775 140.229 392.994 141.526 392.994 143.316ZM393.5 143.316C393.5 141.336 391.99 139.732 390.123 139.732C388.267 139.732 386.75 141.336 386.75 143.316C386.75 145.296 388.267 146.897 390.123 146.897C391.99 146.897 393.5 145.296 393.5 143.316Z" fill="#050066"/>
<path d="M390.746 142.48C390.746 143.009 390.333 143.065 389.933 143.065H389.58V141.891H390.102C390.575 141.891 390.746 142.133 390.746 142.48ZM391.585 145.143L390.77 143.927C390.624 143.71 390.522 143.563 390.363 143.436C390.951 143.356 391.291 143.016 391.291 142.48C391.291 141.93 390.928 141.432 390.221 141.432H389.078V145.143H389.58V143.482C389.855 143.482 389.96 143.573 390.129 143.843L390.975 145.143H391.585Z" fill="#050066"/>
<path d="M104.619 115.351L98.2229 131.189H111.071L104.619 115.351ZM124.184 146.903H117.256L113.47 137.352H95.8211L91.9824 146.903H85.2655L101.689 107.04H107.761L124.184 146.903Z" fill="#050066"/>
<path d="M184.695 146.904H178.08V113.769H166.243V107.321H197.061L194.52 113.769H184.695V146.904Z" fill="#050066"/>
<path d="M310.249 113.768H290.261V123.834H303.063V130.061H290.261V140.579H310.259V146.904H283.66V107.321H310.249V113.768Z" fill="#050066"/>
<path d="M357.112 146.907H350.858V107.324H357.112V146.907Z" fill="#050066"/>
<path d="M330.52 113.034C326.707 113.034 323.466 114.257 323.45 116.94C323.43 120.083 325.29 121.173 332.311 123.594C340.068 126.299 344.188 129.05 344.145 135.742C344.105 143.286 338.608 147.589 330.579 147.589C324.897 147.589 319.802 145.633 315.917 142.011L318.336 135.802C321.861 138.934 326.132 141.156 330.748 141.177C334.788 141.198 337.663 139.113 337.663 136.026C337.663 133.444 336.255 131.727 329.446 129.439C321.636 126.723 316.918 123.892 316.958 117.147C317.004 110.437 322.938 106.622 330.398 106.66C337.861 106.699 342.063 109.593 342.701 109.985L340.355 115.63C338.832 114.758 335.492 113.034 330.52 113.034Z" fill="#050066"/>
<path d="M365.173 126.483L381.88 107.321H373.875L357.112 126.483L375.534 146.91H383.648L365.173 126.483Z" fill="#050066"/>
<path d="M217.277 141.2C209.942 141.2 204.587 134.897 204.587 127.118C204.587 119.34 209.942 113.033 217.277 113.033C224.611 113.033 229.97 119.34 229.97 127.118C229.97 134.897 224.611 141.2 217.277 141.2ZM217.277 106.642C206.615 106.642 197.976 115.811 197.976 127.118C197.976 138.425 206.615 147.588 217.277 147.588C227.934 147.588 236.581 138.425 236.581 127.118C236.581 115.811 227.934 106.642 217.277 106.642Z" fill="#050066"/>
<path d="M257.647 140.572L250.108 140.579V113.775H257.677C265.008 113.775 270.337 119.286 270.337 127.061C270.337 134.836 264.975 140.572 257.647 140.572ZM257.647 107.324H243.487V146.907L257.647 146.904C268.301 146.904 276.944 138.365 276.944 127.061C276.944 115.754 268.301 107.324 257.647 107.324Z" fill="#050066"/>
<path d="M159.035 129.367C159.035 141.168 152.506 147.531 143.037 147.531C133.572 147.531 127.044 141.168 127.044 129.367V107.324H133.655V130.201C133.655 137.125 137.487 141.189 143.037 141.189C148.594 141.189 152.427 137.125 152.427 130.201V107.324H159.035V129.367Z" fill="#050066"/>
<path d="M17.6718 164.5C15.8338 164.5 14.8786 163.765 13.9617 162.057L5.58637 145.591C5.0092 144.411 5 144.018 5 143.168L18.163 143.783L21.1757 146.978H47.5791L25.6561 161.381C24.5875 162.051 20.5234 164.5 17.6718 164.5Z" fill="#050066"/>
<path d="M21.1878 146.978H9.80196C6.36304 146.978 5 145.071 5 143.168C5 141.964 5.36534 141.307 5.87047 139.969L22.4632 97.9591L22.6415 97.5905L22.8712 97.2123L23.3487 96.7186L24.0499 96.3212L25.0654 96.084L26.8123 96.1321L38.3426 100.677L34.4438 113.717L21.1878 146.978Z" fill="#050066"/>
<path fill-rule="evenodd" clip-rule="evenodd" d="M54.6199 164.498L28.4293 98.7412C27.9782 97.6216 27.2549 96.1769 25.3827 96.1769C23.71 96.1769 22.9131 97.0359 22.4632 97.9591C22.6958 97.2934 23.4 96 25.4408 96H43.5169C45.1827 96 45.9819 97.0402 46.3459 97.9926L72.8312 164.498H54.6199Z" fill="#050066"/>
</svg>
