<svg width="1000" height="168" viewBox="0 0 1000 168" fill="none" xmlns="http://www.w3.org/2000/svg">
<path d="M998.2 115.223C998.2 119.564 995.065 122.699 990.817 122.699C986.586 122.699 983.435 119.564 983.435 115.223C983.435 110.882 986.586 107.738 990.817 107.738C995.065 107.738 998.2 110.882 998.2 115.223ZM999.5 115.223C999.5 110.423 995.617 106.532 990.817 106.532C986.043 106.532 982.143 110.423 982.143 115.223C982.143 120.023 986.043 123.905 990.817 123.905C995.617 123.905 999.5 120.023 999.5 115.223" fill="#050066"/>
<path d="M992.419 113.196C992.419 114.479 991.357 114.615 990.329 114.615H989.42V111.769H990.763C991.978 111.769 992.419 112.355 992.419 113.196ZM994.577 119.652L992.479 116.704C992.105 116.178 991.842 115.821 991.434 115.515C992.946 115.32 993.821 114.496 993.821 113.196C993.821 111.862 992.887 110.656 991.069 110.656H988.129V119.652H989.42V115.625C990.126 115.625 990.397 115.846 990.831 116.501L993.006 119.652H994.577V119.652Z" fill="#050066"/>
<path d="M256.664 47.4192L240.216 85.8187H273.255L256.664 47.4192ZM306.974 123.921H289.159L279.423 100.762H234.04L224.169 123.921H206.897L249.128 27.2679H264.743L306.974 123.921V123.921Z" fill="#050066"/>
<path d="M462.572 123.923H445.564V43.5817H415.125V27.95H494.371L487.837 43.5817H462.572V123.923Z" fill="#050066"/>
<path d="M785.427 43.5802H734.029V67.9877H766.949V83.0841H734.029V108.588H785.452V123.922H717.055V27.9485H785.427V43.5802Z" fill="#050066"/>
<path d="M905.93 123.929H889.848V27.9554H905.93V123.929Z" fill="#050066"/>
<path d="M837.551 41.8002C827.747 41.8002 819.413 44.7651 819.371 51.2726C819.32 58.8931 824.103 61.5352 842.156 67.4055C862.103 73.964 872.697 80.633 872.587 96.8593C872.485 115.15 858.348 125.583 837.704 125.583C823.092 125.583 809.992 120.842 800.001 112.058L806.22 97.0037C815.285 104.599 826.269 109.985 838.137 110.036C848.527 110.087 855.918 105.032 855.918 97.5475C855.918 91.2863 852.299 87.1235 834.79 81.576C814.707 74.992 802.575 68.1276 802.677 51.7739C802.796 35.505 818.054 26.2535 837.237 26.3469C856.428 26.4404 867.234 33.4576 868.874 34.4091L862.842 48.0953C858.926 45.9799 850.337 41.8002 837.551 41.8002Z" fill="#050066"/>
<path d="M926.659 74.4099L969.62 27.9481H949.036L905.93 74.4099L953.301 123.938H974.166L926.659 74.4099Z" fill="#050066"/>
<path d="M546.354 110.093C527.494 110.093 513.723 94.8095 513.723 75.9495C513.723 57.0896 527.494 41.7977 546.354 41.7977C565.214 41.7977 578.994 57.0896 578.994 75.9495C578.994 94.8095 565.214 110.093 546.354 110.093ZM546.354 26.302C518.939 26.302 496.723 48.5346 496.723 75.9495C496.723 103.364 518.939 125.58 546.354 125.58C573.76 125.58 595.993 103.364 595.993 75.9495C595.993 48.5346 573.76 26.302 546.354 26.302Z" fill="#050066"/>
<path d="M650.163 108.57L630.777 108.587V43.597H650.24C669.091 43.597 682.794 56.9604 682.794 75.8118C682.794 94.6633 669.006 108.57 650.163 108.57ZM650.163 27.9568H613.752V123.93L650.163 123.922C677.561 123.922 699.785 103.218 699.785 75.8118C699.785 48.3969 677.561 27.9568 650.163 27.9568Z" fill="#050066"/>
<path d="M396.589 81.4019C396.589 110.015 379.802 125.442 355.453 125.442C331.114 125.442 314.327 110.015 314.327 81.4019V27.9568H331.326V83.4238C331.326 100.211 341.181 110.066 355.453 110.066C369.743 110.066 379.598 100.211 379.598 83.4238V27.9568H396.589V81.4019Z" fill="#050066"/>
<path d="M33.0846 166.586C28.3583 166.586 25.9022 164.803 23.5444 160.662L2.0078 120.739C0.52365 117.878 0.5 116.925 0.5 114.863L34.3477 116.355L42.0946 124.102H109.989L53.6156 159.024C50.8679 160.649 40.4172 166.586 33.0846 166.586V166.586Z" fill="#050066"/>
<path d="M42.1257 124.102H12.8479C4.00495 124.102 0.5 119.477 0.5 114.863C0.5 111.944 1.43944 110.352 2.73835 107.107L45.4054 5.25015L45.8639 4.35635L46.4545 3.43928L47.6825 2.24242L49.4855 1.27872L52.0968 0.703613L56.5889 0.820191L86.2382 11.8406L76.2126 43.4561L42.1257 124.102Z" fill="#050066"/>
<path fill-rule="evenodd" clip-rule="evenodd" d="M128.094 166.58L60.7467 7.14641C59.5867 4.43167 57.7269 0.929002 52.9128 0.929002C48.6115 0.929002 46.5624 3.01172 45.4053 5.25015C46.0036 3.6359 47.8142 0.5 53.062 0.5H99.5434C103.827 0.5 105.882 3.02217 106.818 5.3314L174.923 166.58H128.094Z" fill="#050066"/>
</svg>
