<svg width="652" height="652" viewBox="0 0 652 652" fill="none" xmlns="http://www.w3.org/2000/svg">
<path d="M68.1999 323.6C64.5999 323.6 61.5999 326.6 61.5999 330.2C61.5999 333.9 64.5999 336.8 68.1999 336.8C71.8999 336.8 74.7999 333.8 74.7999 330.2C74.7999 326.6 71.7999 323.6 68.1999 323.6ZM48.3999 303.8C44.7999 303.8 41.7999 306.8 41.7999 310.4C41.7999 314.1 44.7999 317 48.3999 317C52.0999 317 54.9999 314 54.9999 310.4C54.9999 306.8 51.9999 303.8 48.3999 303.8ZM48.3999 343.5C44.7999 343.5 41.7999 346.5 41.7999 350.1C41.7999 353.7 44.7999 356.7 48.3999 356.7C52.0999 356.7 54.9999 353.7 54.9999 350.1C54.9999 346.4 51.9999 343.5 48.3999 343.5ZM48.3999 323.6C44.7999 323.6 41.7999 326.6 41.7999 330.2C41.7999 333.8 44.7999 336.8 48.3999 336.8C52.0999 336.8 54.9999 333.8 54.9999 330.2C54.9999 326.6 51.9999 323.6 48.3999 323.6ZM28.4999 323.6C24.7999 323.6 21.8999 326.6 21.8999 330.2C21.8999 333.9 24.8999 336.8 28.4999 336.8C32.0999 336.8 35.0999 333.8 35.0999 330.2C35.0999 326.6 32.1999 323.6 28.4999 323.6ZM610.8 356.7H621.9V284.9H610.8V356.7ZM488.8 356.7H499.8V303.8H488.8V356.7ZM494.2 284C490.6 284 487.6 287 487.6 290.6C487.6 294.2 490.6 297.2 494.2 297.2C497.9 297.2 500.8 294.2 500.8 290.6C500.9 286.9 497.9 284 494.2 284ZM590.1 336.8C590.1 345.2 585.3 350.4 577.6 350.4C571.4 350.4 568 347 568 341.9C568 336.1 572 332.5 580.8 332.5H590.1V336.8ZM579.4 302.2C570.7 302.2 564.6 305.2 560 309.2V317.5C564.5 312.5 570.1 310 576.5 310C584.9 310 590.2 314.6 590.2 324.1V326.2H580.2C564.5 326.2 556.9 332.7 556.9 342.1C556.9 351.1 563.9 358 573.9 358C582 358 587.5 353.9 590.2 348V356.6H601.2V323.7C601.1 310.1 593.2 302.2 579.4 302.2ZM383.7 323.6C385 315.2 389.8 309.4 397.8 309.4C405.2 309.4 410.2 314.2 410.4 323.6H383.7ZM398.1 302.2C382 302.2 371.6 313.7 371.6 329.8C371.6 346.9 383.4 358.2 400.2 358.2C408.6 358.2 415.5 355.3 419.8 351.1V344.3C415.8 348.2 409.5 350.4 403.2 350.4C391.8 350.4 383.9 343.5 383.3 330H421.5V326.5C421.4 311.2 412.3 302.2 398.1 302.2ZM536.6 350.4C524.8 350.4 518.4 341.6 518.4 330.1C518.4 318.3 525.3 310.2 536.3 310.2C542.2 310.2 547.1 312.4 551.4 317.6V309.3C547.5 305 541.6 302.3 534 302.3C517.9 302.3 506.6 314.5 506.6 330.4C506.6 346.2 518 358.4 533.9 358.4C540.6 358.4 546.7 356.2 552.1 350.8V343.5C548.4 347.8 542.5 350.4 536.6 350.4ZM452.7 350.2C443.9 350.2 438.1 342.4 438.1 330.5C438.1 318.4 444 310.2 453.1 310.2C462.4 310.2 468 318.3 468 330C468 341.9 461.8 350.2 452.7 350.2ZM467.8 313.7C464.4 306.4 458.4 302.2 450.5 302.2C436.9 302.2 426.2 314.4 426.2 330.7C426.2 346.7 436.2 358.2 449.4 358.2C458.5 358.2 465 352.8 467.8 345.7V356.6H478.8V284.8H467.8V313.7V313.7ZM182.8 302.2C174.1 302.2 168.3 307 165.4 314.3V303.8H154.4V356.7H165.4V327.6C165.4 317.7 170.3 311.4 179 311.4C186.9 311.4 190.2 316.1 190.2 326V356.7H201.2V323.7C201.2 310.1 193.9 302.2 182.8 302.2ZM121 350.9C112 350.9 106.5 342.8 106.5 330.3C106.5 317.7 112 309.6 121 309.6C130.2 309.6 135.7 317.7 135.7 330.3C135.7 342.8 130.3 350.9 121 350.9ZM121 302.2C105.8 302.2 94.5999 314.4 94.5999 330.3C94.5999 346.2 105.7 358.3 121 358.3C136.5 358.3 147.6 346.2 147.6 330.3C147.6 314.4 136.5 302.2 121 302.2ZM219.9 323.6C221.3 315.2 226 309.4 234.1 309.4C241.4 309.4 246.4 314.2 246.6 323.6H219.9ZM234.3 302.2C218.2 302.2 207.9 313.7 207.9 329.8C207.9 346.9 219.6 358.2 236.4 358.2C244.8 358.2 251.7 355.3 256.1 351.1V344.3C252 348.2 245.8 350.4 239.5 350.4C228 350.4 220.1 343.5 219.6 330H257.7V326.5C257.6 311.2 248.5 302.2 234.3 302.2ZM348.6 302.2C341.3 302.2 335.7 306.4 332.6 313.4C330.3 306.3 324.6 302.2 317.6 302.2C310.5 302.2 305.5 306.4 302.9 313.2V303.7H291.8V356.6H302.9V325C302.9 316.9 307 311.2 313.6 311.2C319.8 311.2 323 315.4 323 323.5V356.6H334V324.1C334 316.5 338.1 311.2 344.8 311.2C351 311.2 353.9 315.4 353.9 323.8V356.6H364.9V321.8C365 309.6 358.6 302.2 348.6 302.2Z" fill="#050066"/>
</svg>
