<svg width="504" height="504" viewBox="0 0 504 504" fill="none" xmlns="http://www.w3.org/2000/svg">
<path d="M151.8 355.1C147.6 354 145.9 353.4 145.9 351C145.9 349.3 147.5 348 150.2 348C153 348 154.7 349.1 156 350.9L159.4 348.1C157.3 345.3 154.4 343.8 150.1 343.8C144.8 343.8 141.3 346.8 141.3 351.2C141.3 355.9 144.5 358 149.8 359.5C154.5 360.8 156.4 361.8 156.4 364.2C156.4 366.4 154.4 367.8 151 367.8C147.4 367.8 144.7 366.2 143.1 363.5L139.5 366C142 369.8 145.9 372.1 151 372.1C157.4 372.1 161.2 369.1 161.2 364C161.1 358.9 157.5 356.6 151.8 355.1Z" fill="#050066"/>
<path d="M180.1 367.5C174.8 367.5 171.3 363.5 171.3 357.8C171.3 352.1 174.8 348.1 180.1 348.1C185.3 348.1 188.8 352.1 188.8 357.8C188.8 363.5 185.4 367.5 180.1 367.5ZM188.6 348.9C186.7 345.5 183.5 343.7 179.1 343.7C171.6 343.7 166 349.8 166 357.9C166 365.9 171.6 372 179.1 372C183.5 372 186.7 370.1 188.6 366.8V371.4H193.6V344.5H188.6V348.9Z" fill="#050066"/>
<path d="M232.6 343.7C228.3 343.7 225.2 345.3 223.1 348.7C221.5 345.3 218.6 343.7 215 343.7C211.3 343.7 208.5 345.3 207 348V344.3H202V371.2H207V355.7C207 350.8 209.5 348.1 214 348.1C217.8 348.1 219.7 350.4 219.7 354.6V371.1H224.7V355.5C224.7 350.8 227.2 348 231.7 348C235.5 348 237.4 350.2 237.4 354.5V371.1H242.4V353.9C242.3 347.6 238.2 343.7 232.6 343.7Z" fill="#050066"/>
<path d="M260.3 355.1C256.1 354 254.4 353.4 254.4 351C254.4 349.3 256 348 258.7 348C261.5 348 263.2 349.1 264.5 350.9L267.9 348.1C265.8 345.3 262.9 343.8 258.6 343.8C253.3 343.8 249.8 346.8 249.8 351.2C249.8 355.9 253 358 258.3 359.5C263 360.8 264.9 361.8 264.9 364.2C264.9 366.4 262.9 367.8 259.5 367.8C255.9 367.8 253.2 366.2 251.6 363.5L248 366C250.5 369.8 254.4 372.1 259.5 372.1C265.9 372.1 269.7 369.1 269.7 364C269.7 358.9 266.1 356.6 260.3 355.1Z" fill="#050066"/>
<path d="M288.7 367.5C283.4 367.5 279.9 363.5 279.9 357.8C279.9 352.1 283.4 348.1 288.7 348.1C293.9 348.1 297.4 352.1 297.4 357.8C297.3 363.5 293.9 367.5 288.7 367.5ZM297.2 348.9C295.3 345.5 292.1 343.7 287.7 343.7C280.2 343.7 274.6 349.8 274.6 357.9C274.6 365.9 280.2 372 287.7 372C292.1 372 295.3 370.1 297.2 366.8V371.4H302.2V344.5H297.2V348.9Z" fill="#050066"/>
<path d="M342.6 367.5C337.3 367.5 333.8 363.5 333.8 357.8C333.8 352.1 337.3 348.1 342.6 348.1C347.8 348.1 351.3 352.1 351.3 357.8C351.3 363.5 347.9 367.5 342.6 367.5ZM351.1 344.4V349C349.2 345.6 346 343.8 341.6 343.8C334.1 343.8 328.5 349.9 328.5 358C328.5 366 334.1 372.1 341.6 372.1C346 372.1 349.2 370.2 351.1 366.9V371.5H356.1V344.6H351.1V344.4Z" fill="#050066"/>
<path d="M323.3 343.7L315.5 350.6V344.4H310.5V371.3H315.5V357.3L326.6 347.4L323.3 343.7Z" fill="#050066"/>
<path d="M278.1 203.6C276.8 206.6 274.8 208.9 272.1 210.6C269.7 212.1 267.1 212.9 264.3 213C263.1 213 262.1 212.1 262.1 210.9C262.1 209.7 263 208.7 264.2 208.7C266.2 208.6 268.1 208.1 269.8 207C271.7 205.8 273.2 204.1 274.1 201.9C274.7 200.6 274.6 199.2 273.8 198C273.1 196.8 271.9 196.1 270.5 196C267.6 195.8 265.1 196.7 263.2 198.6C260.1 201.7 258.9 207.2 258.3 209.5C257.8 211.5 252.7 233.3 250.6 242.1C250.3 243.5 249.1 244.5 247.6 244.5C246.2 244.5 244.9 243.5 244.6 242.1L244 239C241.6 229 237.5 211.3 237.1 209.6C236.6 207.2 235.3 201.7 232.2 198.6C230.3 196.7 227.8 195.8 224.9 196C223.5 196.1 222.3 196.8 221.6 198C220.9 199.2 220.8 200.6 221.3 201.9C222.3 204.1 223.7 205.8 225.6 207C227.3 208.1 229.2 208.6 231.2 208.7C232.4 208.7 233.3 209.7 233.3 210.9C233.3 212.1 232.2 213 231.1 213C228.3 212.9 225.7 212.1 223.3 210.6C220.6 208.9 218.6 206.6 217.3 203.6C216.2 201 216.4 198.1 217.8 195.7C219.3 193.3 221.8 191.8 224.6 191.6C228.8 191.4 232.4 192.7 235.2 195.5C239.2 199.5 240.6 205.8 241.3 208.6C241.7 210.3 245.3 225.7 247.7 235.9C250.1 225.7 253.7 210.3 254.1 208.6C254.7 205.9 256.2 199.5 260.2 195.5C263 192.7 266.6 191.4 270.8 191.6C273.6 191.8 276.1 193.3 277.6 195.7C279 198.1 279.2 201.1 278.1 203.6ZM258.6 169.2C255.7 169.2 252.7 169.7 249.8 170.7C248.5 171.1 247 171.1 245.7 170.7C242.8 169.7 239.8 169.2 236.9 169.2C220.2 169.2 206 185.9 206 205.7C206 227.7 222.9 247.2 247 253C247.5 253.1 248 253.1 248.5 253C272.6 247.2 289.5 227.7 289.5 205.7C289.5 186 275.4 169.2 258.6 169.2Z" fill="#050066"/>
<path d="M249.5 257.3C248.9 257.4 248.3 257.5 247.7 257.5C247.1 257.5 246.5 257.4 245.9 257.3C219.8 251 201.6 229.8 201.6 205.7C201.6 183.5 217.7 164.8 236.8 164.8C240.2 164.8 243.6 165.4 247 166.5C247.4 166.6 247.9 166.6 248.4 166.5C251.8 165.4 255.2 164.8 258.6 164.8C277.7 164.8 293.8 183.5 293.8 205.7C293.9 229.8 275.6 251 249.5 257.3ZM291.3 251.3C291.3 252.5 290.3 253.5 289.1 253.5C287.9 253.5 286.9 252.5 286.9 251.3V248.3C286.9 247.1 287.9 246.1 289.1 246.1C290.3 246.1 291.3 247.1 291.3 248.3V251.3ZM291.3 265.1C291.3 266.3 290.3 267.3 289.1 267.3C287.9 267.3 286.9 266.3 286.9 265.1V262.1C286.9 260.9 287.9 259.9 289.1 259.9C290.3 259.9 291.3 260.9 291.3 262.1V265.1ZM277.5 272C277.5 273.2 276.5 274.2 275.3 274.2C274.1 274.2 273.1 273.2 273.1 272V269C273.1 267.8 274.1 266.8 275.3 266.8C276.5 266.8 277.5 267.8 277.5 269V272ZM277.5 285.8C277.5 287 276.5 288 275.3 288C274.1 288 273.1 287 273.1 285.8V282.8C273.1 281.6 274.1 280.6 275.3 280.6C276.5 280.6 277.5 281.6 277.5 282.8V285.8ZM263.7 278.9C263.7 280.1 262.7 281.1 261.5 281.1C260.3 281.1 259.3 280.1 259.3 278.9V275.9C259.3 274.7 260.3 273.7 261.5 273.7C262.7 273.7 263.7 274.7 263.7 275.9V278.9ZM263.7 292.7C263.7 293.9 262.7 294.9 261.5 294.9C260.3 294.9 259.3 293.9 259.3 292.7V289.7C259.3 288.5 260.3 287.5 261.5 287.5C262.7 287.5 263.7 288.5 263.7 289.7V292.7ZM249.9 272C249.9 273.2 248.9 274.2 247.7 274.2C246.5 274.2 245.5 273.2 245.5 272V269C245.5 267.8 246.5 266.8 247.7 266.8C248.9 266.8 249.9 267.8 249.9 269V272ZM249.9 285.8C249.9 287 248.9 288 247.7 288C246.5 288 245.5 287 245.5 285.8V282.8C245.5 281.6 246.5 280.6 247.7 280.6C248.9 280.6 249.9 281.6 249.9 282.8V285.8ZM236.1 278.9C236.1 280.1 235.1 281.1 233.9 281.1C232.7 281.1 231.7 280.1 231.7 278.9V275.9C231.7 274.7 232.7 273.7 233.9 273.7C235.1 273.7 236.1 274.7 236.1 275.9V278.9ZM236.1 292.7C236.1 293.9 235.1 294.9 233.9 294.9C232.7 294.9 231.7 293.9 231.7 292.7V289.7C231.7 288.5 232.7 287.5 233.9 287.5C235.1 287.5 236.1 288.5 236.1 289.7V292.7ZM222.3 272C222.3 273.2 221.3 274.2 220.1 274.2C218.9 274.2 217.9 273.2 217.9 272V269C217.9 267.8 218.9 266.8 220.1 266.8C221.3 266.8 222.3 267.8 222.3 269V272ZM222.3 285.8C222.3 287 221.3 288 220.1 288C218.9 288 217.9 287 217.9 285.8V282.8C217.9 281.6 218.9 280.6 220.1 280.6C221.3 280.6 222.3 281.6 222.3 282.8V285.8ZM208.5 251.3C208.5 252.5 207.5 253.5 206.3 253.5C205.1 253.5 204.1 252.5 204.1 251.3V248.3C204.1 247.1 205.1 246.1 206.3 246.1C207.5 246.1 208.5 247.1 208.5 248.3V251.3ZM208.5 265.1C208.5 266.3 207.5 267.3 206.3 267.3C205.1 267.3 204.1 266.3 204.1 265.1V262.1C204.1 260.9 205.1 259.9 206.3 259.9C207.5 259.9 208.5 260.9 208.5 262.1V265.1ZM247.7 153.8C217.8 153.8 193.6 178 193.6 207.9V254.6C193.6 284.5 217.8 308.7 247.7 308.7C277.6 308.7 301.8 284.5 301.8 254.6V207.9C301.8 178 277.6 153.8 247.7 153.8Z" fill="#050066"/>
</svg>
